<svg xmlns="http://www.w3.org/2000/svg" style="display: none" id="loox-rating-icon-svg-store">
	<defs>
		<clipPath id="looxicons-rating-icon-fill_star-pointy-fill__a">
			<path d="M0 0h24v24H0z"/>
		</clipPath>

		<clipPath id="looxicons-rating-icon-line_star-pointy-line__a">
			<path d="M0 0h24v24H0z"/>
		</clipPath>
	</defs>
	<symbol id="looxicons-rating-icon-fill" viewBox="0 0 24 24" fill="currentcolor">
		<g clip-path="url(#star-pointy-fill__a)">
			<path d="m12 19.261-7.416 4.151 1.656-8.335L0 9.306l8.44-1.002L12 .588l3.56 7.717L24 9.306l-6.24 5.77 1.656 8.336L12 19.262Z"/>
		</g>
	</symbol>
	<symbol id="looxicons-rating-icon-line" viewBox="0 0 24 24" fill="currentcolor">
		<g clip-path="url(#star-pointy-line__a)">
			<path d="m12 19.261-7.416 4.151 1.656-8.335L0 9.306l8.44-1.002L12 .588l3.56 7.717L24 9.306l-6.24 5.77 1.656 8.336L12 19.262Zm0-2.41 4.465 2.5-.997-5.019 3.756-3.475-5.081-.602L12 5.608l-2.143 4.648-5.081.601 3.756 3.475-.997 5.019L12 16.85Z"/>
		</g>
	</symbol>
	<defs>
		<style>
			.lx-icon-fill {
				--lx-fill-width: calc(100% - var(--lx-rating-percent, 0%));
				clip-path: inset(0 var(--lx-fill-width, 0) 0 0);
			}
			.lx-icon-line {
				clip-path: inset(0 0 0 var(--lx-rating-percent, 0%));
			}
			[data-lx-fill='empty'] {
				--lx-rating-percent: 0%;
			}
			[data-lx-fill='half'] {
				--lx-rating-percent: 50%;
			}
			[data-lx-fill='full'] {
				--lx-rating-percent: 100%;
			}
		</style>

		<g id="looxicons-rating-icon">
			<use href="#looxicons-rating-icon-line" class="lx-icon-line"/>
			<use href="#looxicons-rating-icon-fill" class="lx-icon-fill"/>
		</g>
	</defs>
</svg>