<svg class="icon icon-cart" aria-hidden="true" focusable="false" xmlns="http://www.w3.org/2000/svg" viewBox="0 0 29 27" fill="none">
    <path fill-rule="evenodd" clip-rule="evenodd" d="M22.3686 15.9365C21.7912 15.9365 21.2203 16.2247 20.7873 16.7699C20.3524 17.3174 20.0988 18.0742 20.0988 18.8762C20.0988 20.0398 20.6997 21.1681 21.3591 22.0446C21.683 22.4751 22.008 22.8276 22.252 23.0723C22.2934 23.1138 22.3324 23.1521 22.3686 23.1871C22.4048 23.1521 22.4438 23.1138 22.4852 23.0723C22.7292 22.8276 23.0541 22.4751 23.378 22.0446C24.0375 21.1681 24.6383 20.0398 24.6383 18.8762C24.6383 18.0742 24.3847 17.3174 23.9499 16.7699C23.5169 16.2247 22.946 15.9365 22.3686 15.9365ZM22.3686 23.8301C22.0899 24.2169 22.0896 24.2167 22.0896 24.2167L22.0886 24.2158L22.0863 24.2139L22.0788 24.2075L22.0527 24.1849C22.0304 24.1655 21.9988 24.1375 21.959 24.1014C21.8796 24.0291 21.7677 23.9241 21.634 23.7902C21.3673 23.5228 21.0114 23.1369 20.6543 22.6623C19.9519 21.7287 19.1909 20.38 19.1909 18.8762C19.1909 17.8589 19.5112 16.871 20.098 16.1322C20.6866 15.391 21.5012 14.9565 22.3686 14.9565C23.2359 14.9565 24.0506 15.391 24.6392 16.1322C25.2259 16.871 25.5462 17.8589 25.5462 18.8762C25.5462 20.38 24.7852 21.7287 24.0828 22.6623C23.7258 23.1369 23.3698 23.5228 23.1031 23.7902C22.9695 23.9241 22.8576 24.0291 22.7781 24.1014C22.7384 24.1375 22.7067 24.1655 22.6845 24.1849L22.6583 24.2075L22.6508 24.2139L22.6486 24.2158L22.6475 24.2167C22.6475 24.2167 22.6473 24.2169 22.3686 23.8301ZM22.3686 23.8301L22.6475 24.2167C22.4836 24.3543 22.2536 24.3543 22.0896 24.2167L22.3686 23.8301Z" fill="#25282B"/>
    <path d="M20.7873 16.7699C21.2203 16.2247 21.7912 15.9365 22.3686 15.9365C22.946 15.9365 23.5169 16.2247 23.9499 16.7699C24.3847 17.3174 24.6383 18.0742 24.6383 18.8762C24.6383 20.0398 24.0375 21.1681 23.378 22.0446C23.0541 22.4751 22.7292 22.8276 22.4852 23.0723C22.4438 23.1138 22.4048 23.1521 22.3686 23.1871C22.3324 23.1521 22.2934 23.1138 22.252 23.0723C22.008 22.8276 21.683 22.4751 21.3591 22.0446C20.6997 21.1681 20.0988 20.0398 20.0988 18.8762C20.0988 18.0742 20.3524 17.3174 20.7873 16.7699Z" fill="#25282B"/>
    <path d="M21.7331 18.8763C21.7331 18.5156 22.0041 18.2231 22.3384 18.2231C22.6726 18.2231 22.9436 18.5156 22.9436 18.8763C22.9436 19.2371 22.6726 19.5296 22.3384 19.5296C22.0041 19.5296 21.7331 19.2371 21.7331 18.8763Z" fill="white"/>
    <path fill-rule="evenodd" clip-rule="evenodd" d="M6.06664 2.06306C6.00488 2.09615 5.92329 2.15736 5.88531 2.1991C5.79471 2.29868 2.09165 8.86846 2.03127 9.03677C1.99261 9.1445 1.99078 9.22914 2.02033 9.54183C2.13971 10.8052 2.8606 11.8816 3.98978 12.4823L4.14169 12.5631V23.5045L4.2157 23.6471C4.26113 23.7346 4.34926 23.8303 4.44391 23.8949L4.59809 24H21.6185L21.6174 23.999C21.5332 23.9275 21.4145 23.8235 21.2728 23.6908C21.0094 23.444 20.6637 23.0952 20.3115 22.6684L13.6073 22.6574L12.2597 22.6735H5.48915V12.8795L5.86612 12.8618C6.46369 12.8337 7.02934 12.652 7.55757 12.3184C7.86781 12.1225 8.27038 11.7625 8.46025 11.5112L8.58511 11.346L8.71126 11.5017C8.78066 11.5873 8.92859 11.7476 9.04007 11.8579C9.55314 12.3656 10.2792 12.7284 11.0073 12.841C11.3924 12.9005 12.0822 12.8627 12.4671 12.761C12.849 12.6601 13.408 12.3897 13.7023 12.1635C13.9105 12.0035 14.3486 11.5656 14.4491 11.4171L14.5022 11.3386L14.5743 11.4333C15.0473 12.0546 15.8056 12.5663 16.5423 12.7611C16.9264 12.8627 17.6164 12.9005 18.0013 12.841C18.833 12.7124 19.6828 12.2337 20.2133 11.5947L20.4193 11.3466L20.4981 11.4535C20.5414 11.5122 20.71 11.6913 20.8727 11.8515C21.5001 12.4692 22.2923 12.8219 23.1425 12.8618L23.5195 12.8795V14.4235C23.868 14.6177 24.0288 14.716 24.3294 14.9412C24.546 15.1034 24.6208 15.1353 24.8613 15.3857L24.8675 12.5588L24.9876 12.5011C25.2244 12.3873 25.6323 12.0974 25.859 11.8818C26.5646 11.2105 26.9827 10.2713 26.9959 9.32794L27 9.03677L25.375 6.15735C24.4812 4.57368 23.6141 3.03772 23.4482 2.74412C23.1864 2.28086 23.1261 2.19638 22.9925 2.10515L22.8385 2L14.5087 2.00142C6.45057 2.00281 6.17527 2.00482 6.06664 2.06306ZM25.0534 8.325L19.7788 8.33319C16.8779 8.33768 12.1301 8.33768 9.22817 8.33319L3.95202 8.325L5.31697 5.89853C6.0677 4.56397 6.70264 3.43929 6.72795 3.3992L6.77402 3.32634L22.2444 3.34265L25.0534 8.325ZM7.84648 9.80515C7.80554 10.0018 7.64619 10.3444 7.4987 10.5529C7.06171 11.1704 6.39375 11.5118 5.62242 11.5118C5.20959 11.5118 4.95347 11.4531 4.59084 11.2755C4.10335 11.0367 3.65169 10.5136 3.46789 9.97477C3.43263 9.87147 3.40379 9.76736 3.40379 9.74345C3.40379 9.70751 3.78881 9.7 5.63606 9.7H7.86836L7.84648 9.80515ZM13.7512 9.82132C13.7043 10.0758 13.4935 10.479 13.2688 10.7442C12.9985 11.0633 12.5193 11.3558 12.0961 11.4599C11.8295 11.5255 11.2833 11.5268 11.0127 11.4625C10.4327 11.3246 9.87826 10.9123 9.5779 10.3955C9.4909 10.2458 9.35965 9.92886 9.3267 9.78897L9.30575 9.7H13.7736L13.7512 9.82132ZM19.6822 9.78897C19.6389 9.97536 19.4681 10.3494 19.3436 10.5305C19.1693 10.7841 19.0485 10.9094 18.8194 11.0743C18.3835 11.388 17.9994 11.5118 17.4609 11.5118C17.0481 11.5118 16.792 11.4531 16.4293 11.2756C16.2086 11.1676 16.1007 11.0863 15.8637 10.8497C15.6114 10.5979 15.5505 10.5147 15.4245 10.25C15.344 10.081 15.2685 9.88807 15.2566 9.82132L15.2351 9.7H19.7029L19.6822 9.78897ZM25.6049 9.74345C25.6049 9.83048 25.4738 10.1678 25.3591 10.3762C25.2175 10.6334 24.7992 11.0621 24.5408 11.2148C24.123 11.4617 23.5766 11.5749 23.105 11.5121C22.5809 11.4423 22.1939 11.2597 21.8166 10.9043C21.5006 10.6067 21.2394 10.1677 21.1626 9.80515L21.1403 9.7H23.3726C25.2198 9.7 25.6049 9.70751 25.6049 9.74345Z" fill="black"/>
  </svg>