<svg xmlns="http://www.w3.org/2000/svg" aria-hidden="true" focusable="false" class="icon icon-account" fill="none" viewBox="0 0 30 30">
    <path d="M9.22118 6.96C9.22118 5.9734 9.63616 5.0272 10.3748 4.32956C11.1135 3.63193 12.1154 3.24 13.16 3.24C14.2046 3.24 15.2065 3.63193 15.9452 4.32956C16.6838 5.0272 17.0988 5.9734 17.0988 6.96C17.0988 7.94661 16.6838 8.8928 15.9452 9.59044C15.2065 10.2881 14.2046 10.68 13.16 10.68C12.1154 10.68 11.1135 10.2881 10.3748 9.59044C9.63616 8.8928 9.22118 7.94661 9.22118 6.96ZM13.16 2C11.7671 2 10.4313 2.52257 9.44644 3.45275C8.46154 4.38293 7.90824 5.64453 7.90824 6.96C7.90824 8.27547 8.46154 9.53707 9.44644 10.4672C10.4313 11.3974 11.7671 11.92 13.16 11.92C14.5529 11.92 15.8887 11.3974 16.8736 10.4672C17.8585 9.53707 18.4118 8.27547 18.4118 6.96C18.4118 5.64453 17.8585 4.38293 16.8736 3.45275C15.8887 2.52257 14.5529 2 13.16 2ZM20.4862 17.066C21.9567 18.0828 22.8889 19.8436 22.9939 23.08H3.32607C3.43111 19.856 4.36329 18.0828 5.82066 17.066C7.46184 15.95 9.87765 15.64 13.16 15.64C16.4424 15.64 18.8713 15.9624 20.4862 17.066ZM13.16 14.4C9.87765 14.4 7.05482 14.6976 5.05915 16.074C3.01096 17.4752 2 19.8932 2 23.7V24.32H24.32V23.7C24.32 19.8932 23.309 17.4752 21.2608 16.074C19.2652 14.71 16.4424 14.4 13.16 14.4Z" fill="black" stroke="black" stroke-width="0.27"/>
  </svg>