<svg class="icon icon-cart" aria-hidden="true" focusable="false" xmlns="http://www.w3.org/2000/svg" viewBox="0 0 30 30" fill="none">
  <path id="wishlist_icon" d="M24.1494 3.97325C23.5629 3.34767 22.8667 2.85142 22.1003 2.51284C21.334 2.17427 20.5126 2 19.6831 2C18.8535 2 18.0321 2.17427 17.2658 2.51284C16.4994 2.85142 15.8032 3.34767 15.2167 3.97325L13.9997 5.27094L12.7826 3.97325C11.5981 2.71022 9.99152 2.00065 8.31633 2.00065C6.64114 2.00065 5.03455 2.71022 3.85001 3.97325C2.66547 5.23628 2 6.94932 2 8.73552C2 10.5217 2.66547 12.2348 3.85001 13.4978L5.06705 14.7955L13.9997 24.32L22.9323 14.7955L24.1494 13.4978C24.7361 12.8725 25.2015 12.1301 25.519 11.313C25.8366 10.4958 26 9.62001 26 8.73552C26 7.85102 25.8366 6.9752 25.519 6.15807C25.2015 5.34095 24.7361 4.59853 24.1494 3.97325Z" stroke="#E9718B" stroke-width="1.5" stroke-linecap="round" stroke-linejoin="round"/>
</svg>