<svg width="20" height="20" viewBox="0 0 20 20" fill="none" xmlns="http://www.w3.org/2000/svg" class="icon icon-linkedin">
  <path d="M15.8333 0H4.16667C3.0616 0 2.00179 0.438987 1.22039 1.22039C0.438987 2.00179 0 3.0616 0 4.16667L0 15.8333C0 16.3805 0.107774 16.9223 0.317169 17.4278C0.526563 17.9334 0.833478 18.3927 1.22039 18.7796C2.00179 19.561 3.0616 20 4.16667 20H15.8333C16.3805 20 16.9223 19.8922 17.4278 19.6828C17.9334 19.4734 18.3927 19.1665 18.7796 18.7796C19.1665 18.3927 19.4734 17.9334 19.6828 17.4278C19.8922 16.9223 20 16.3805 20 15.8333V4.16667C20 3.61949 19.8922 3.07768 19.6828 2.57215C19.4734 2.06663 19.1665 1.6073 18.7796 1.22039C18.3927 0.833478 17.9334 0.526563 17.4278 0.317169C16.9223 0.107774 16.3805 0 15.8333 0ZM6.66667 15.8333H4.16667V6.66667H6.66667V15.8333ZM5.41667 5.60833C5.02658 5.60833 4.65247 5.45337 4.37663 5.17754C4.1008 4.9017 3.94583 4.52759 3.94583 4.1375C3.94583 3.74741 4.1008 3.3733 4.37663 3.09746C4.65247 2.82163 5.02658 2.66667 5.41667 2.66667C5.80676 2.66667 6.18087 2.82163 6.4567 3.09746C6.73254 3.3733 6.8875 3.74741 6.8875 4.1375C6.8875 4.52759 6.73254 4.9017 6.4567 5.17754C6.18087 5.45337 5.80676 5.60833 5.41667 5.60833ZM16.6667 15.8333H14.1667V11.1667C14.1667 8.35833 10.8333 8.56667 10.8333 11.1667V15.8333H8.33333V6.66667H10.8333V8.13333C11.2141 7.51879 11.7936 7.05303 12.4757 6.81343C13.1578 6.57383 13.9013 6.57482 14.5827 6.81624C15.2641 7.05766 15.8425 7.52498 16.2216 8.14053C16.6007 8.75609 16.7577 9.48283 16.6667 10.2V15.8333Z" fill="#121212"/>
</svg>