<svg width="17" height="17" viewBox="0 0 17 17" fill="none" xmlns="http://www.w3.org/2000/svg" aria-hidden="true" focusable="false" class="icon icon-account">
    <path fill-rule="evenodd" clip-rule="evenodd" d="M5 4.1C5 2.38792 6.38792 1 8.1 1C9.81208 1 11.2 2.38792 11.2 4.1C11.2 5.81208 9.81208 7.2 8.1 7.2C6.38792 7.2 5 5.81208 5 4.1ZM8.1 0C5.83563 0 4 1.83563 4 4.1C4 6.36437 5.83563 8.2 8.1 8.2C10.3644 8.2 12.2 6.36437 12.2 4.1C12.2 1.83563 10.3644 0 8.1 0ZM8.5 8.8C6.33352 8.8 4.1382 9.18458 2.49821 10.7474C0.901689 12.2688 0 14.3375 0 16.5V17H0.5L8.5 17H16.5H17V16.5C17 14.3375 16.0983 12.2688 14.5018 10.7474C12.8618 9.18458 10.6665 8.8 8.5 8.8ZM3.18808 11.4713C4.54868 10.1748 6.42302 9.8 8.5 9.8C10.577 9.8 12.4513 10.1748 13.8119 11.4713C15.0911 12.6903 15.8556 14.3006 15.9815 16H8.5L1.01849 16C1.14437 14.3006 1.9089 12.6903 3.18808 11.4713Z" fill="white"/>
  </svg>